<mxfile host="app.diagrams.net" modified="2024-05-13T13:50:44.476Z" agent="Mozilla/5.0 (Windows NT 10.0; Win64; x64) AppleWebKit/537.36 (KHTML, like Gecko) Chrome/124.0.0.0 Safari/537.36" etag="Mr6frvBSv7FzC-8RVjP1" version="24.2.2" type="google">
  <diagram name="PÃ¡gina-1" id="yMJpfwep5vK8i44Nv-QK">
    <mxGraphModel grid="0" page="0" gridSize="10" guides="1" tooltips="1" connect="1" arrows="1" fold="1" pageScale="1" pageWidth="827" pageHeight="1169" math="0" shadow="0">
      <root>
        <mxCell id="0" />
        <mxCell id="1" parent="0" />
        <mxCell id="tycm4G_9MduwJl2_ljbf-6" style="edgeStyle=none;curved=1;rounded=0;orthogonalLoop=1;jettySize=auto;html=1;entryX=0;entryY=0.5;entryDx=0;entryDy=0;fontSize=12;startSize=8;endSize=8;endArrow=none;endFill=0;" edge="1" parent="1" source="tycm4G_9MduwJl2_ljbf-2" target="tycm4G_9MduwJl2_ljbf-3">
          <mxGeometry relative="1" as="geometry" />
        </mxCell>
        <mxCell id="tycm4G_9MduwJl2_ljbf-2" value="USUARIO" style="rounded=0;whiteSpace=wrap;html=1;" vertex="1" parent="1">
          <mxGeometry x="121" y="-58" width="120" height="60" as="geometry" />
        </mxCell>
        <mxCell id="5o3Ht3gXM4AKcb__C2Ck-10" style="edgeStyle=orthogonalEdgeStyle;rounded=0;orthogonalLoop=1;jettySize=auto;html=1;exitX=0.5;exitY=0;exitDx=0;exitDy=0;endArrow=none;endFill=0;" edge="1" parent="1" source="tycm4G_9MduwJl2_ljbf-3" target="5o3Ht3gXM4AKcb__C2Ck-7">
          <mxGeometry relative="1" as="geometry" />
        </mxCell>
        <mxCell id="5o3Ht3gXM4AKcb__C2Ck-49" style="edgeStyle=orthogonalEdgeStyle;rounded=0;orthogonalLoop=1;jettySize=auto;html=1;entryX=0.5;entryY=0;entryDx=0;entryDy=0;endArrow=none;endFill=0;" edge="1" parent="1" source="tycm4G_9MduwJl2_ljbf-3" target="5o3Ht3gXM4AKcb__C2Ck-34">
          <mxGeometry relative="1" as="geometry" />
        </mxCell>
        <mxCell id="tycm4G_9MduwJl2_ljbf-3" value="" style="triangle;whiteSpace=wrap;html=1;rotation=90;" vertex="1" parent="1">
          <mxGeometry x="165" y="54" width="32" height="61" as="geometry" />
        </mxCell>
        <mxCell id="tycm4G_9MduwJl2_ljbf-7" value="CHOFER" style="rounded=0;whiteSpace=wrap;html=1;" vertex="1" parent="1">
          <mxGeometry x="149" y="370" width="120" height="60" as="geometry" />
        </mxCell>
        <mxCell id="5o3Ht3gXM4AKcb__C2Ck-1" value="&lt;b&gt;id_usuario&lt;/b&gt;&lt;div&gt;nombre&lt;/div&gt;&lt;div&gt;apellidos&lt;/div&gt;&lt;div&gt;fechaNacimiento&lt;/div&gt;&lt;div&gt;DNI&lt;/div&gt;&lt;div&gt;email&lt;/div&gt;&lt;div&gt;saldo&lt;/div&gt;&lt;div&gt;contrasenya&lt;br&gt;&lt;/div&gt;&lt;div&gt;roles&lt;/div&gt;" style="text;html=1;align=center;verticalAlign=middle;resizable=0;points=[];autosize=1;strokeColor=none;fillColor=none;" vertex="1" parent="1">
          <mxGeometry x="14" y="-87" width="107" height="138" as="geometry" />
        </mxCell>
        <mxCell id="5o3Ht3gXM4AKcb__C2Ck-4" value="PERMISO&lt;br&gt;CONDUCCION" style="rounded=0;whiteSpace=wrap;html=1;" vertex="1" parent="1">
          <mxGeometry x="-550" y="174" width="111" height="60" as="geometry" />
        </mxCell>
        <mxCell id="5o3Ht3gXM4AKcb__C2Ck-5" value="&lt;b&gt;id_permiso&lt;/b&gt;&lt;div&gt;tipo&lt;/div&gt;&lt;div&gt;&lt;div&gt;fecha_validez&lt;/div&gt;&lt;div&gt;fecha_expedicion&lt;/div&gt;&lt;/div&gt;" style="text;html=1;align=center;verticalAlign=middle;resizable=0;points=[];autosize=1;strokeColor=none;fillColor=none;" vertex="1" parent="1">
          <mxGeometry x="-661" y="170" width="111" height="70" as="geometry" />
        </mxCell>
        <mxCell id="Enspnp0s0IM4FP3xSgeI-5" value="" style="edgeStyle=orthogonalEdgeStyle;rounded=0;orthogonalLoop=1;jettySize=auto;html=1;endArrow=none;endFill=0;" edge="1" parent="1" source="5o3Ht3gXM4AKcb__C2Ck-6" target="Enspnp0s0IM4FP3xSgeI-4">
          <mxGeometry relative="1" as="geometry" />
        </mxCell>
        <mxCell id="5o3Ht3gXM4AKcb__C2Ck-6" value="CONDUCTOR_FLOTA" style="rounded=0;whiteSpace=wrap;html=1;" vertex="1" parent="1">
          <mxGeometry x="-251.5" y="373.5" width="137.5" height="60" as="geometry" />
        </mxCell>
        <mxCell id="5o3Ht3gXM4AKcb__C2Ck-7" value="ADMINISTRADOR" style="rounded=0;whiteSpace=wrap;html=1;" vertex="1" parent="1">
          <mxGeometry x="320.5" y="179" width="120" height="60" as="geometry" />
        </mxCell>
        <mxCell id="5o3Ht3gXM4AKcb__C2Ck-12" value="&lt;div&gt;preferencia_kms&lt;/div&gt;&lt;div&gt;recibeTrayectos&lt;/div&gt;" style="text;html=1;align=center;verticalAlign=middle;resizable=0;points=[];autosize=1;strokeColor=none;fillColor=none;" vertex="1" parent="1">
          <mxGeometry x="42" y="383" width="107" height="41" as="geometry" />
        </mxCell>
        <mxCell id="5o3Ht3gXM4AKcb__C2Ck-13" value="&lt;div&gt;toneladas_maximas&lt;/div&gt;" style="text;html=1;align=center;verticalAlign=middle;resizable=0;points=[];autosize=1;strokeColor=none;fillColor=none;" vertex="1" parent="1">
          <mxGeometry x="-114" y="388" width="125" height="26" as="geometry" />
        </mxCell>
        <mxCell id="5o3Ht3gXM4AKcb__C2Ck-14" value="&lt;div&gt;permisos&lt;/div&gt;&lt;div&gt;horario&lt;/div&gt;" style="text;html=1;align=center;verticalAlign=middle;resizable=0;points=[];autosize=1;strokeColor=none;fillColor=none;" vertex="1" parent="1">
          <mxGeometry x="253.5" y="189.5" width="67" height="41" as="geometry" />
        </mxCell>
        <mxCell id="5o3Ht3gXM4AKcb__C2Ck-16" value="TRAYECTO" style="rounded=0;whiteSpace=wrap;html=1;" vertex="1" parent="1">
          <mxGeometry x="549" y="-58" width="120" height="60" as="geometry" />
        </mxCell>
        <mxCell id="5o3Ht3gXM4AKcb__C2Ck-17" value="&lt;b&gt;id_trayecto&lt;/b&gt;&lt;div&gt;estado&lt;/div&gt;&lt;div&gt;fecha&lt;br&gt;&lt;div&gt;hora_inicio&lt;/div&gt;&lt;div&gt;hora_fin&lt;/div&gt;&lt;div&gt;recogida&lt;/div&gt;&lt;/div&gt;&lt;div&gt;destino&lt;/div&gt;&lt;div&gt;precio&lt;/div&gt;&lt;div&gt;enviaPaquete&lt;/div&gt;&lt;div&gt;&lt;br&gt;&lt;/div&gt;" style="text;html=1;align=center;verticalAlign=middle;resizable=0;points=[];autosize=1;strokeColor=none;fillColor=none;" vertex="1" parent="1">
          <mxGeometry x="679" y="-107" width="91" height="156" as="geometry" />
        </mxCell>
        <mxCell id="2bUomrszHpW-_mkfDbby-7" style="edgeStyle=orthogonalEdgeStyle;rounded=0;orthogonalLoop=1;jettySize=auto;html=1;entryX=0;entryY=0.5;entryDx=0;entryDy=0;" edge="1" parent="1" source="5o3Ht3gXM4AKcb__C2Ck-18" target="2bUomrszHpW-_mkfDbby-3">
          <mxGeometry relative="1" as="geometry">
            <Array as="points">
              <mxPoint x="-182" y="829" />
            </Array>
          </mxGeometry>
        </mxCell>
        <mxCell id="5o3Ht3gXM4AKcb__C2Ck-18" value="ENVIO" style="rounded=0;whiteSpace=wrap;html=1;" vertex="1" parent="1">
          <mxGeometry x="-242" y="623" width="120" height="60" as="geometry" />
        </mxCell>
        <mxCell id="5o3Ht3gXM4AKcb__C2Ck-19" value="&lt;b&gt;id_envio&lt;/b&gt;&lt;div&gt;visible&lt;/div&gt;&lt;div&gt;recogida&lt;/div&gt;&lt;div&gt;destino&lt;/div&gt;&lt;div&gt;fecha_recogida&lt;/div&gt;&lt;div&gt;fecha_llegada&lt;/div&gt;&lt;div&gt;entregado&lt;/div&gt;" style="text;html=1;align=center;verticalAlign=middle;resizable=0;points=[];autosize=1;strokeColor=none;fillColor=none;" vertex="1" parent="1">
          <mxGeometry x="-342" y="596.5" width="100" height="113" as="geometry" />
        </mxCell>
        <mxCell id="5o3Ht3gXM4AKcb__C2Ck-20" value="VEHICULO_ALQUILER" style="rounded=0;whiteSpace=wrap;html=1;" vertex="1" parent="1">
          <mxGeometry x="-302.5" y="-283" width="142" height="60" as="geometry" />
        </mxCell>
        <mxCell id="5o3Ht3gXM4AKcb__C2Ck-22" value="&lt;b&gt;id_vehiculo&lt;/b&gt;&lt;div&gt;&lt;span style=&quot;background-color: initial;&quot;&gt;matricula&lt;/span&gt;&lt;/div&gt;&lt;div&gt;numBastidor&lt;/div&gt;&lt;div&gt;marca&lt;/div&gt;&lt;div&gt;modelo&lt;/div&gt;&lt;div&gt;anyo_matriculacion&lt;/div&gt;&lt;div&gt;precio_por_hora&lt;br&gt;&lt;/div&gt;" style="text;html=1;align=center;verticalAlign=middle;resizable=0;points=[];autosize=1;strokeColor=none;fillColor=none;" vertex="1" parent="1">
          <mxGeometry x="-423.5" y="-312" width="121" height="113" as="geometry" />
        </mxCell>
        <mxCell id="5o3Ht3gXM4AKcb__C2Ck-25" value="&lt;b&gt;id_paquete&lt;/b&gt;&lt;div&gt;contenido&lt;/div&gt;&lt;div&gt;cantidad&lt;/div&gt;&lt;div&gt;peso&lt;/div&gt;&lt;div&gt;&lt;br&gt;&lt;/div&gt;" style="text;html=1;align=center;verticalAlign=middle;resizable=0;points=[];autosize=1;strokeColor=none;fillColor=none;" vertex="1" parent="1">
          <mxGeometry x="269" y="614" width="81" height="84" as="geometry" />
        </mxCell>
        <mxCell id="5o3Ht3gXM4AKcb__C2Ck-26" value="PAQUETE" style="rounded=0;whiteSpace=wrap;html=1;" vertex="1" parent="1">
          <mxGeometry x="149" y="623" width="120" height="60" as="geometry" />
        </mxCell>
        <mxCell id="5o3Ht3gXM4AKcb__C2Ck-50" style="edgeStyle=orthogonalEdgeStyle;rounded=0;orthogonalLoop=1;jettySize=auto;html=1;endArrow=none;endFill=0;" edge="1" parent="1" source="5o3Ht3gXM4AKcb__C2Ck-32" target="5o3Ht3gXM4AKcb__C2Ck-4">
          <mxGeometry relative="1" as="geometry" />
        </mxCell>
        <mxCell id="5o3Ht3gXM4AKcb__C2Ck-51" style="edgeStyle=orthogonalEdgeStyle;rounded=0;orthogonalLoop=1;jettySize=auto;html=1;endArrow=none;endFill=0;" edge="1" parent="1" source="5o3Ht3gXM4AKcb__C2Ck-32" target="5o3Ht3gXM4AKcb__C2Ck-34">
          <mxGeometry relative="1" as="geometry" />
        </mxCell>
        <mxCell id="5o3Ht3gXM4AKcb__C2Ck-32" value="TIENE" style="rhombus;whiteSpace=wrap;html=1;" vertex="1" parent="1">
          <mxGeometry x="-318" y="164" width="151" height="80" as="geometry" />
        </mxCell>
        <mxCell id="5o3Ht3gXM4AKcb__C2Ck-45" style="edgeStyle=orthogonalEdgeStyle;rounded=0;orthogonalLoop=1;jettySize=auto;html=1;endArrow=none;endFill=0;" edge="1" parent="1" source="5o3Ht3gXM4AKcb__C2Ck-34" target="5o3Ht3gXM4AKcb__C2Ck-35">
          <mxGeometry relative="1" as="geometry" />
        </mxCell>
        <mxCell id="5o3Ht3gXM4AKcb__C2Ck-68" style="edgeStyle=orthogonalEdgeStyle;rounded=0;orthogonalLoop=1;jettySize=auto;html=1;exitX=0.25;exitY=0;exitDx=0;exitDy=0;entryX=1;entryY=0.5;entryDx=0;entryDy=0;endArrow=none;endFill=0;" edge="1" parent="1" source="5o3Ht3gXM4AKcb__C2Ck-34" target="5o3Ht3gXM4AKcb__C2Ck-66">
          <mxGeometry relative="1" as="geometry" />
        </mxCell>
        <mxCell id="5o3Ht3gXM4AKcb__C2Ck-34" value="CONDUCTOR" style="rounded=0;whiteSpace=wrap;html=1;" vertex="1" parent="1">
          <mxGeometry x="-46" y="174" width="120" height="60" as="geometry" />
        </mxCell>
        <mxCell id="Enspnp0s0IM4FP3xSgeI-1" style="edgeStyle=orthogonalEdgeStyle;rounded=0;orthogonalLoop=1;jettySize=auto;html=1;exitX=0.5;exitY=1;exitDx=0;exitDy=0;endArrow=none;endFill=0;" edge="1" parent="1" source="5o3Ht3gXM4AKcb__C2Ck-35" target="5o3Ht3gXM4AKcb__C2Ck-6">
          <mxGeometry relative="1" as="geometry" />
        </mxCell>
        <mxCell id="Enspnp0s0IM4FP3xSgeI-2" style="edgeStyle=orthogonalEdgeStyle;rounded=0;orthogonalLoop=1;jettySize=auto;html=1;exitX=0.5;exitY=0;exitDx=0;exitDy=0;endArrow=none;endFill=0;" edge="1" parent="1" source="5o3Ht3gXM4AKcb__C2Ck-35" target="tycm4G_9MduwJl2_ljbf-7">
          <mxGeometry relative="1" as="geometry" />
        </mxCell>
        <mxCell id="5o3Ht3gXM4AKcb__C2Ck-35" value="" style="triangle;whiteSpace=wrap;html=1;rotation=90;" vertex="1" parent="1">
          <mxGeometry x="-2" y="264" width="32" height="61" as="geometry" />
        </mxCell>
        <mxCell id="5o3Ht3gXM4AKcb__C2Ck-43" value="" style="endArrow=none;html=1;rounded=0;" edge="1" parent="1">
          <mxGeometry width="50" height="50" relative="1" as="geometry">
            <mxPoint x="-41" y="280" as="sourcePoint" />
            <mxPoint x="61" y="283" as="targetPoint" />
            <Array as="points">
              <mxPoint x="13" y="329" />
            </Array>
          </mxGeometry>
        </mxCell>
        <mxCell id="5o3Ht3gXM4AKcb__C2Ck-44" value="" style="ellipse;whiteSpace=wrap;html=1;aspect=fixed;" vertex="1" parent="1">
          <mxGeometry x="6" y="259" width="16" height="16" as="geometry" />
        </mxCell>
        <mxCell id="5o3Ht3gXM4AKcb__C2Ck-48" value="&lt;div&gt;&lt;div&gt;horario&lt;/div&gt;&lt;/div&gt;" style="text;html=1;align=center;verticalAlign=middle;resizable=0;points=[];autosize=1;strokeColor=none;fillColor=none;" vertex="1" parent="1">
          <mxGeometry x="78" y="192" width="55" height="26" as="geometry" />
        </mxCell>
        <mxCell id="5o3Ht3gXM4AKcb__C2Ck-54" value="1:N" style="text;html=1;align=center;verticalAlign=middle;resizable=0;points=[];autosize=1;strokeColor=none;fillColor=none;" vertex="1" parent="1">
          <mxGeometry x="-260.5" y="138" width="37" height="26" as="geometry" />
        </mxCell>
        <mxCell id="5o3Ht3gXM4AKcb__C2Ck-55" value="(0,N)" style="text;html=1;align=center;verticalAlign=middle;resizable=0;points=[];autosize=1;strokeColor=none;fillColor=none;" vertex="1" parent="1">
          <mxGeometry x="-89" y="176.5" width="45" height="26" as="geometry" />
        </mxCell>
        <mxCell id="5o3Ht3gXM4AKcb__C2Ck-56" value="(1,N)" style="text;html=1;align=center;verticalAlign=middle;resizable=0;points=[];autosize=1;strokeColor=none;fillColor=none;" vertex="1" parent="1">
          <mxGeometry x="-439" y="174" width="45" height="26" as="geometry" />
        </mxCell>
        <mxCell id="5o3Ht3gXM4AKcb__C2Ck-57" value="CONTRATO" style="rounded=0;whiteSpace=wrap;html=1;" vertex="1" parent="1">
          <mxGeometry x="-548" y="-37" width="120" height="60" as="geometry" />
        </mxCell>
        <mxCell id="5o3Ht3gXM4AKcb__C2Ck-58" value="&lt;div&gt;&lt;div&gt;&lt;b&gt;id_contrato&lt;/b&gt;&lt;/div&gt;&lt;/div&gt;&lt;div&gt;fecha_inicio&lt;/div&gt;&lt;div&gt;fecha_fin&lt;/div&gt;&lt;div&gt;&lt;span style=&quot;background-color: initial;&quot;&gt;salario&lt;/span&gt;&lt;br&gt;&lt;/div&gt;" style="text;html=1;align=center;verticalAlign=middle;resizable=0;points=[];autosize=1;strokeColor=none;fillColor=none;" vertex="1" parent="1">
          <mxGeometry x="-529.5" y="30" width="83" height="70" as="geometry" />
        </mxCell>
        <mxCell id="5o3Ht3gXM4AKcb__C2Ck-60" style="edgeStyle=orthogonalEdgeStyle;rounded=0;orthogonalLoop=1;jettySize=auto;html=1;entryX=0.5;entryY=0;entryDx=0;entryDy=0;endArrow=none;endFill=0;" edge="1" parent="1" source="5o3Ht3gXM4AKcb__C2Ck-59" target="5o3Ht3gXM4AKcb__C2Ck-57">
          <mxGeometry relative="1" as="geometry" />
        </mxCell>
        <mxCell id="5o3Ht3gXM4AKcb__C2Ck-61" style="edgeStyle=orthogonalEdgeStyle;rounded=0;orthogonalLoop=1;jettySize=auto;html=1;entryX=0;entryY=0.5;entryDx=0;entryDy=0;endArrow=none;endFill=0;" edge="1" parent="1" source="5o3Ht3gXM4AKcb__C2Ck-59" target="5o3Ht3gXM4AKcb__C2Ck-57">
          <mxGeometry relative="1" as="geometry">
            <Array as="points">
              <mxPoint x="-638" y="-7" />
            </Array>
          </mxGeometry>
        </mxCell>
        <mxCell id="5o3Ht3gXM4AKcb__C2Ck-59" value="RENUEVA" style="rhombus;whiteSpace=wrap;html=1;" vertex="1" parent="1">
          <mxGeometry x="-713" y="-142" width="151" height="80" as="geometry" />
        </mxCell>
        <mxCell id="5o3Ht3gXM4AKcb__C2Ck-62" value="id_contrato_anterior" style="text;html=1;align=center;verticalAlign=middle;resizable=0;points=[];autosize=1;strokeColor=none;fillColor=none;" vertex="1" parent="1">
          <mxGeometry x="-838" y="-118" width="125" height="26" as="geometry" />
        </mxCell>
        <mxCell id="5o3Ht3gXM4AKcb__C2Ck-63" value="1:1" style="text;html=1;align=center;verticalAlign=middle;resizable=0;points=[];autosize=1;strokeColor=none;fillColor=none;" vertex="1" parent="1">
          <mxGeometry x="-659" y="-170" width="35" height="26" as="geometry" />
        </mxCell>
        <mxCell id="5o3Ht3gXM4AKcb__C2Ck-64" value="(0,1)" style="text;html=1;align=center;verticalAlign=middle;resizable=0;points=[];autosize=1;strokeColor=none;fillColor=none;" vertex="1" parent="1">
          <mxGeometry x="-489.5" y="-62" width="43" height="26" as="geometry" />
        </mxCell>
        <mxCell id="5o3Ht3gXM4AKcb__C2Ck-65" value="(0,1)" style="text;html=1;align=center;verticalAlign=middle;resizable=0;points=[];autosize=1;strokeColor=none;fillColor=none;" vertex="1" parent="1">
          <mxGeometry x="-591" y="-31" width="43" height="26" as="geometry" />
        </mxCell>
        <mxCell id="5o3Ht3gXM4AKcb__C2Ck-69" style="edgeStyle=orthogonalEdgeStyle;rounded=0;orthogonalLoop=1;jettySize=auto;html=1;entryX=1;entryY=0.5;entryDx=0;entryDy=0;endArrow=none;endFill=0;" edge="1" parent="1" source="5o3Ht3gXM4AKcb__C2Ck-66" target="5o3Ht3gXM4AKcb__C2Ck-57">
          <mxGeometry relative="1" as="geometry" />
        </mxCell>
        <mxCell id="5o3Ht3gXM4AKcb__C2Ck-66" value="TIENE" style="rhombus;whiteSpace=wrap;html=1;" vertex="1" parent="1">
          <mxGeometry x="-319" y="-47" width="151" height="80" as="geometry" />
        </mxCell>
        <mxCell id="5o3Ht3gXM4AKcb__C2Ck-67" value="1:1" style="text;html=1;align=center;verticalAlign=middle;resizable=0;points=[];autosize=1;strokeColor=none;fillColor=none;" vertex="1" parent="1">
          <mxGeometry x="-260.5" y="-71" width="35" height="26" as="geometry" />
        </mxCell>
        <mxCell id="5o3Ht3gXM4AKcb__C2Ck-70" value="(1,1)" style="text;html=1;align=center;verticalAlign=middle;resizable=0;points=[];autosize=1;strokeColor=none;fillColor=none;" vertex="1" parent="1">
          <mxGeometry x="-57" y="148" width="43" height="26" as="geometry" />
        </mxCell>
        <mxCell id="5o3Ht3gXM4AKcb__C2Ck-71" value="(1,1)" style="text;html=1;align=center;verticalAlign=middle;resizable=0;points=[];autosize=1;strokeColor=none;fillColor=none;" vertex="1" parent="1">
          <mxGeometry x="-434" y="-36" width="43" height="26" as="geometry" />
        </mxCell>
        <mxCell id="Enspnp0s0IM4FP3xSgeI-6" value="" style="edgeStyle=orthogonalEdgeStyle;rounded=0;orthogonalLoop=1;jettySize=auto;html=1;endArrow=none;endFill=0;" edge="1" parent="1" source="Enspnp0s0IM4FP3xSgeI-4" target="5o3Ht3gXM4AKcb__C2Ck-18">
          <mxGeometry relative="1" as="geometry" />
        </mxCell>
        <mxCell id="Enspnp0s0IM4FP3xSgeI-4" value="REALIZA" style="rhombus;whiteSpace=wrap;html=1;" vertex="1" parent="1">
          <mxGeometry x="-258.25" y="484" width="151" height="80" as="geometry" />
        </mxCell>
        <mxCell id="Enspnp0s0IM4FP3xSgeI-9" value="" style="edgeStyle=orthogonalEdgeStyle;rounded=0;orthogonalLoop=1;jettySize=auto;html=1;endArrow=none;endFill=0;" edge="1" parent="1" source="Enspnp0s0IM4FP3xSgeI-7" target="5o3Ht3gXM4AKcb__C2Ck-26">
          <mxGeometry relative="1" as="geometry" />
        </mxCell>
        <mxCell id="Enspnp0s0IM4FP3xSgeI-12" value="" style="edgeStyle=orthogonalEdgeStyle;rounded=0;orthogonalLoop=1;jettySize=auto;html=1;endArrow=none;endFill=0;" edge="1" parent="1" source="Enspnp0s0IM4FP3xSgeI-7" target="5o3Ht3gXM4AKcb__C2Ck-18">
          <mxGeometry relative="1" as="geometry" />
        </mxCell>
        <mxCell id="Enspnp0s0IM4FP3xSgeI-7" value="CONTIENE" style="rhombus;whiteSpace=wrap;html=1;" vertex="1" parent="1">
          <mxGeometry x="-57" y="613" width="151" height="80" as="geometry" />
        </mxCell>
        <mxCell id="Enspnp0s0IM4FP3xSgeI-14" value="1:N" style="text;html=1;align=center;verticalAlign=middle;resizable=0;points=[];autosize=1;strokeColor=none;fillColor=none;" vertex="1" parent="1">
          <mxGeometry x="-114" y="511" width="37" height="26" as="geometry" />
        </mxCell>
        <mxCell id="Enspnp0s0IM4FP3xSgeI-15" value="1:N" style="text;html=1;align=center;verticalAlign=middle;resizable=0;points=[];autosize=1;strokeColor=none;fillColor=none;" vertex="1" parent="1">
          <mxGeometry y="587" width="37" height="26" as="geometry" />
        </mxCell>
        <mxCell id="Enspnp0s0IM4FP3xSgeI-16" value="(1,N)" style="text;html=1;align=center;verticalAlign=middle;resizable=0;points=[];autosize=1;strokeColor=none;fillColor=none;" vertex="1" parent="1">
          <mxGeometry x="104" y="627" width="45" height="26" as="geometry" />
        </mxCell>
        <mxCell id="Enspnp0s0IM4FP3xSgeI-17" value="(1,1)" style="text;html=1;align=center;verticalAlign=middle;resizable=0;points=[];autosize=1;strokeColor=none;fillColor=none;" vertex="1" parent="1">
          <mxGeometry x="-121" y="627" width="43" height="26" as="geometry" />
        </mxCell>
        <mxCell id="Enspnp0s0IM4FP3xSgeI-18" value="(1,1)" style="text;html=1;align=center;verticalAlign=middle;resizable=0;points=[];autosize=1;strokeColor=none;fillColor=none;" vertex="1" parent="1">
          <mxGeometry x="-183" y="433.5" width="43" height="26" as="geometry" />
        </mxCell>
        <mxCell id="Enspnp0s0IM4FP3xSgeI-19" value="(0,N)" style="text;html=1;align=center;verticalAlign=middle;resizable=0;points=[];autosize=1;strokeColor=none;fillColor=none;" vertex="1" parent="1">
          <mxGeometry x="-182" y="597" width="45" height="26" as="geometry" />
        </mxCell>
        <mxCell id="Enspnp0s0IM4FP3xSgeI-21" value="" style="edgeStyle=orthogonalEdgeStyle;rounded=0;orthogonalLoop=1;jettySize=auto;html=1;endArrow=none;endFill=0;" edge="1" parent="1" source="Enspnp0s0IM4FP3xSgeI-20" target="tycm4G_9MduwJl2_ljbf-2">
          <mxGeometry relative="1" as="geometry" />
        </mxCell>
        <mxCell id="Enspnp0s0IM4FP3xSgeI-22" value="" style="edgeStyle=orthogonalEdgeStyle;rounded=0;orthogonalLoop=1;jettySize=auto;html=1;endArrow=none;endFill=0;" edge="1" parent="1" source="Enspnp0s0IM4FP3xSgeI-20" target="5o3Ht3gXM4AKcb__C2Ck-16">
          <mxGeometry relative="1" as="geometry" />
        </mxCell>
        <mxCell id="Enspnp0s0IM4FP3xSgeI-20" value="REALIZA" style="rhombus;whiteSpace=wrap;html=1;" vertex="1" parent="1">
          <mxGeometry x="318" y="-68" width="151" height="80" as="geometry" />
        </mxCell>
        <mxCell id="Enspnp0s0IM4FP3xSgeI-23" value="1:N" style="text;html=1;align=center;verticalAlign=middle;resizable=0;points=[];autosize=1;strokeColor=none;fillColor=none;" vertex="1" parent="1">
          <mxGeometry x="375" y="-94" width="37" height="26" as="geometry" />
        </mxCell>
        <mxCell id="Enspnp0s0IM4FP3xSgeI-24" value="(0,N)" style="text;html=1;align=center;verticalAlign=middle;resizable=0;points=[];autosize=1;strokeColor=none;fillColor=none;" vertex="1" parent="1">
          <mxGeometry x="502" y="-53" width="45" height="26" as="geometry" />
        </mxCell>
        <mxCell id="Enspnp0s0IM4FP3xSgeI-25" value="(1,1)" style="text;html=1;align=center;verticalAlign=middle;resizable=0;points=[];autosize=1;strokeColor=none;fillColor=none;" vertex="1" parent="1">
          <mxGeometry x="242" y="-53" width="43" height="26" as="geometry" />
        </mxCell>
        <mxCell id="Enspnp0s0IM4FP3xSgeI-27" style="edgeStyle=orthogonalEdgeStyle;rounded=0;orthogonalLoop=1;jettySize=auto;html=1;entryX=0.5;entryY=1;entryDx=0;entryDy=0;endArrow=none;endFill=0;" edge="1" parent="1" source="Enspnp0s0IM4FP3xSgeI-26" target="5o3Ht3gXM4AKcb__C2Ck-16">
          <mxGeometry relative="1" as="geometry" />
        </mxCell>
        <mxCell id="Enspnp0s0IM4FP3xSgeI-28" style="edgeStyle=orthogonalEdgeStyle;rounded=0;orthogonalLoop=1;jettySize=auto;html=1;entryX=1;entryY=0.5;entryDx=0;entryDy=0;endArrow=none;endFill=0;" edge="1" parent="1" source="Enspnp0s0IM4FP3xSgeI-26" target="tycm4G_9MduwJl2_ljbf-7">
          <mxGeometry relative="1" as="geometry" />
        </mxCell>
        <mxCell id="Enspnp0s0IM4FP3xSgeI-26" value="CONDUCE" style="rhombus;whiteSpace=wrap;html=1;" vertex="1" parent="1">
          <mxGeometry x="534" y="360" width="151" height="80" as="geometry" />
        </mxCell>
        <mxCell id="Enspnp0s0IM4FP3xSgeI-30" value="(0,N)" style="text;html=1;align=center;verticalAlign=middle;resizable=0;points=[];autosize=1;strokeColor=none;fillColor=none;" vertex="1" parent="1">
          <mxGeometry x="610" y="2" width="45" height="26" as="geometry" />
        </mxCell>
        <mxCell id="Enspnp0s0IM4FP3xSgeI-31" value="(1,1)" style="text;html=1;align=center;verticalAlign=middle;resizable=0;points=[];autosize=1;strokeColor=none;fillColor=none;" vertex="1" parent="1">
          <mxGeometry x="269" y="373.5" width="43" height="26" as="geometry" />
        </mxCell>
        <mxCell id="Enspnp0s0IM4FP3xSgeI-32" value="1:N" style="text;html=1;align=center;verticalAlign=middle;resizable=0;points=[];autosize=1;strokeColor=none;fillColor=none;" vertex="1" parent="1">
          <mxGeometry x="685" y="387" width="37" height="26" as="geometry" />
        </mxCell>
        <mxCell id="Enspnp0s0IM4FP3xSgeI-34" style="edgeStyle=orthogonalEdgeStyle;rounded=0;orthogonalLoop=1;jettySize=auto;html=1;endArrow=none;endFill=0;" edge="1" parent="1" source="Enspnp0s0IM4FP3xSgeI-33" target="5o3Ht3gXM4AKcb__C2Ck-20">
          <mxGeometry relative="1" as="geometry" />
        </mxCell>
        <mxCell id="Enspnp0s0IM4FP3xSgeI-35" style="edgeStyle=orthogonalEdgeStyle;rounded=0;orthogonalLoop=1;jettySize=auto;html=1;endArrow=none;endFill=0;" edge="1" parent="1" source="Enspnp0s0IM4FP3xSgeI-33" target="tycm4G_9MduwJl2_ljbf-2">
          <mxGeometry relative="1" as="geometry" />
        </mxCell>
        <mxCell id="Enspnp0s0IM4FP3xSgeI-33" value="ALQUILA" style="rhombus;whiteSpace=wrap;html=1;" vertex="1" parent="1">
          <mxGeometry x="105.5" y="-293" width="151" height="80" as="geometry" />
        </mxCell>
        <mxCell id="Enspnp0s0IM4FP3xSgeI-37" value="activo&lt;div&gt;fecha_inicio&lt;/div&gt;" style="text;html=1;align=center;verticalAlign=middle;resizable=0;points=[];autosize=1;strokeColor=none;fillColor=none;" vertex="1" parent="1">
          <mxGeometry x="256.5" y="-273.5" width="81" height="41" as="geometry" />
        </mxCell>
        <mxCell id="Enspnp0s0IM4FP3xSgeI-38" value="N:M" style="text;html=1;align=center;verticalAlign=middle;resizable=0;points=[];autosize=1;strokeColor=none;fillColor=none;" vertex="1" parent="1">
          <mxGeometry x="162" y="-319" width="40" height="26" as="geometry" />
        </mxCell>
        <mxCell id="Enspnp0s0IM4FP3xSgeI-39" value="(0,N)" style="text;html=1;align=center;verticalAlign=middle;resizable=0;points=[];autosize=1;strokeColor=none;fillColor=none;" vertex="1" parent="1">
          <mxGeometry x="177" y="-89" width="45" height="26" as="geometry" />
        </mxCell>
        <mxCell id="Enspnp0s0IM4FP3xSgeI-40" value="(0,N)" style="text;html=1;align=center;verticalAlign=middle;resizable=0;points=[];autosize=1;strokeColor=none;fillColor=none;" vertex="1" parent="1">
          <mxGeometry x="-160.5" y="-279" width="45" height="26" as="geometry" />
        </mxCell>
        <mxCell id="WwiZSO7Kz6DAJF-cnK9X-1" value="FLOTA_VEHICULOS" style="rounded=0;whiteSpace=wrap;html=1;" vertex="1" parent="1">
          <mxGeometry x="-723" y="373" width="137.5" height="60" as="geometry" />
        </mxCell>
        <mxCell id="WwiZSO7Kz6DAJF-cnK9X-3" value="" style="edgeStyle=orthogonalEdgeStyle;rounded=0;orthogonalLoop=1;jettySize=auto;html=1;endArrow=none;endFill=0;" edge="1" parent="1" source="WwiZSO7Kz6DAJF-cnK9X-2" target="5o3Ht3gXM4AKcb__C2Ck-6">
          <mxGeometry relative="1" as="geometry" />
        </mxCell>
        <mxCell id="WwiZSO7Kz6DAJF-cnK9X-4" value="" style="edgeStyle=orthogonalEdgeStyle;rounded=0;orthogonalLoop=1;jettySize=auto;html=1;endArrow=none;endFill=0;" edge="1" parent="1" source="WwiZSO7Kz6DAJF-cnK9X-2" target="WwiZSO7Kz6DAJF-cnK9X-1">
          <mxGeometry relative="1" as="geometry" />
        </mxCell>
        <mxCell id="WwiZSO7Kz6DAJF-cnK9X-2" value="ESTA EN" style="rhombus;whiteSpace=wrap;html=1;" vertex="1" parent="1">
          <mxGeometry x="-493" y="363" width="151" height="80" as="geometry" />
        </mxCell>
        <mxCell id="WwiZSO7Kz6DAJF-cnK9X-5" value="1:N" style="text;html=1;align=center;verticalAlign=middle;resizable=0;points=[];autosize=1;strokeColor=none;fillColor=none;" vertex="1" parent="1">
          <mxGeometry x="-436" y="337" width="37" height="26" as="geometry" />
        </mxCell>
        <mxCell id="WwiZSO7Kz6DAJF-cnK9X-6" value="(0,N)" style="text;html=1;align=center;verticalAlign=middle;resizable=0;points=[];autosize=1;strokeColor=none;fillColor=none;" vertex="1" parent="1">
          <mxGeometry x="-296.5" y="376" width="45" height="26" as="geometry" />
        </mxCell>
        <mxCell id="WwiZSO7Kz6DAJF-cnK9X-7" value="(1,1)" style="text;html=1;align=center;verticalAlign=middle;resizable=0;points=[];autosize=1;strokeColor=none;fillColor=none;" vertex="1" parent="1">
          <mxGeometry x="-584.5" y="376" width="43" height="26" as="geometry" />
        </mxCell>
        <mxCell id="WwiZSO7Kz6DAJF-cnK9X-8" value="&lt;b&gt;id_flota&lt;/b&gt;&lt;div&gt;nombre&lt;br&gt;&lt;/div&gt;&lt;div&gt;CIF&lt;/div&gt;&lt;div&gt;tipo_vehiculo&lt;/div&gt;" style="text;html=1;align=center;verticalAlign=middle;resizable=0;points=[];autosize=1;strokeColor=none;fillColor=none;" vertex="1" parent="1">
          <mxGeometry x="-811" y="370" width="88" height="70" as="geometry" />
        </mxCell>
        <mxCell id="_jR_gZGjYJo5vnJzclTE-2" value="modeloVehiculo&lt;div&gt;matriculaVehiculo&lt;/div&gt;" style="text;html=1;align=center;verticalAlign=middle;resizable=0;points=[];autosize=1;strokeColor=none;fillColor=none;" vertex="1" parent="1">
          <mxGeometry x="557" y="443" width="112" height="41" as="geometry" />
        </mxCell>
        <mxCell id="2bUomrszHpW-_mkfDbby-5" style="edgeStyle=orthogonalEdgeStyle;rounded=0;orthogonalLoop=1;jettySize=auto;html=1;" edge="1" parent="1" source="2bUomrszHpW-_mkfDbby-3" target="2bUomrszHpW-_mkfDbby-4">
          <mxGeometry relative="1" as="geometry" />
        </mxCell>
        <mxCell id="2bUomrszHpW-_mkfDbby-3" value="TIENE" style="rhombus;whiteSpace=wrap;html=1;" vertex="1" parent="1">
          <mxGeometry x="-101" y="789" width="151" height="80" as="geometry" />
        </mxCell>
        <mxCell id="2bUomrszHpW-_mkfDbby-4" value="ACTUALIZACIONES_ESTADO" style="rounded=0;whiteSpace=wrap;html=1;" vertex="1" parent="1">
          <mxGeometry x="94" y="799" width="180" height="60" as="geometry" />
        </mxCell>
        <mxCell id="2bUomrszHpW-_mkfDbby-6" value="1:N" style="text;html=1;align=center;verticalAlign=middle;resizable=0;points=[];autosize=1;strokeColor=none;fillColor=none;" vertex="1" parent="1">
          <mxGeometry x="-44" y="763" width="37" height="26" as="geometry" />
        </mxCell>
        <mxCell id="2bUomrszHpW-_mkfDbby-8" value="(1,1)" style="text;html=1;align=center;verticalAlign=middle;resizable=0;points=[];autosize=1;strokeColor=none;fillColor=none;" vertex="1" parent="1">
          <mxGeometry x="-181" y="683" width="43" height="26" as="geometry" />
        </mxCell>
        <mxCell id="2bUomrszHpW-_mkfDbby-9" value="(1,N)" style="text;html=1;align=center;verticalAlign=middle;resizable=0;points=[];autosize=1;strokeColor=none;fillColor=none;" vertex="1" parent="1">
          <mxGeometry x="49" y="801" width="45" height="26" as="geometry" />
        </mxCell>
        <mxCell id="2bUomrszHpW-_mkfDbby-10" value="&lt;b&gt;id_actualizacion&lt;/b&gt;&lt;div&gt;fecha&lt;/div&gt;&lt;div&gt;estado&lt;/div&gt;&lt;div&gt;descripcion&lt;/div&gt;" style="text;html=1;align=center;verticalAlign=middle;resizable=0;points=[];autosize=1;strokeColor=none;fillColor=none;" vertex="1" parent="1">
          <mxGeometry x="274" y="794" width="111" height="70" as="geometry" />
        </mxCell>
      </root>
    </mxGraphModel>
  </diagram>
</mxfile>
